<svg width="100" height="125.00000000000001" xmlns="http://www.w3.org/2000/svg">
 <title>Artboard 25</title>

 <g>
  <title>background</title>
  <rect fill="none" id="canvas_background" height="602" width="802" y="-1" x="-1"/>
 </g>
 <g>
  <title>Layer 1</title>
  <path id="svg_1" d="m46.92,89.41633l-10.65,16.19a8.57,8.57 0 0 1 -5.45,3.67a8.28,8.28 0 0 1 -1.61,0.16a7.85,7.85 0 0 1 -4.42,-1.35a8,8 0 0 1 -3.46,-5.43a8.16,8.16 0 0 1 1.57,-6.24l14.65,-19a2,2 0 1 1 3.17,2.45l-14.65,19a4.12,4.12 0 0 0 1,5.92a3.94,3.94 0 0 0 3,0.58a4.54,4.54 0 0 0 2.89,-1.94l10.61,-16.21a2,2 0 0 1 3.34,2.2l0.01,0zm42.08,-71.68c-3.73,-2.66 -8.8,-2.86 -14.26,-0.55a34.06,34.06 0 0 0 -13.95,11.74c-5.06,7.1 -7.43,15.23 -6.33,21.75a9.26,9.26 0 0 1 -0.39,4.5a2,2 0 1 0 3.79,1.29a13.28,13.28 0 0 0 0.55,-6.45c-0.91,-5.42 1.25,-12.61 5.64,-18.77a30,30 0 0 1 12.22,-10.37c4.14,-1.74 7.82,-1.7 10.38,0.13s3.81,5.29 3.51,9.77a30,30 0 0 1 -5.81,14.94c-4.35,6.17 -10.49,10.56 -15.91,11.46a13.3,13.3 0 0 0 -5.82,2.54a14.51,14.51 0 0 0 -1.33,1.15a2,2 0 0 0 2.79,2.86a10.36,10.36 0 0 1 1,-0.83a9.28,9.28 0 0 1 4.05,-1.78c6.53,-1.09 13.44,-6 18.51,-13.08a34.07,34.07 0 0 0 6.55,-17c0.36,-5.91 -1.48,-10.64 -5.19,-13.3zm-43.65,36.37a0.54,0.54 0 0 1 0,-0.53a12.41,12.41 0 0 0 -1.24,-12.22l-17.86,-24.92a2,2 0 1 0 -3.25,2.33l17.84,24.92a8.39,8.39 0 0 1 0.84,8.27a4.52,4.52 0 0 0 0.51,4.6l33,42.68a3.85,3.85 0 1 1 -6.25,4.48l-29.94,-44.9a4.54,4.54 0 0 0 -4.2,-2a8.39,8.39 0 0 1 -7.57,-3.44l-17.81,-24.86a2,2 0 1 0 -3.25,2.33l17.83,24.91a12.39,12.39 0 0 0 11.2,5.09a0.54,0.54 0 0 1 0.5,0.19l29.9,44.89a7.79,7.79 0 0 0 5.12,3.38a7.94,7.94 0 0 0 1.43,0.13a7.85,7.85 0 0 0 6.19,-12.65l-32.99,-42.68zm-12.78,-5.38a2,2 0 0 0 1.64,-3.15l-16.3,-23.28a2,2 0 1 0 -3.28,2.29l16.3,23.28a2,2 0 0 0 1.64,0.86z"/>
 </g>
</svg>