<svg width="95.99999999999999" height="120" xmlns="http://www.w3.org/2000/svg">

 <g>
  <title>background</title>
  <rect fill="none" id="canvas_background" height="602" width="802" y="-1" x="-1"/>
 </g>
 <g>
  <title>Layer 1</title>
  <g id="svg_1">
   <path id="svg_2" d="m58.3,58.3c5.2,1.7 9.9,4.6 13.6,8.4c6.2,6.2 10,14.6 10,24l0,4.1c0,2.1 -0.9,3.9 -2.2,5.3c-1.4,1.4 -3.2,2.2 -5.3,2.2l-52.9,0c-2.1,0 -3.9,-0.8 -5.3,-2.2c-1.4,-1.4 -2.2,-3.2 -2.2,-5.3l0,-4.1c0,-9.4 3.8,-17.8 10,-24c2.4,-2.4 5,-4.4 8,-6c-0.2,-0.2 -0.4,-0.3 -0.6,-0.5c-3.9,-3.5 -6.4,-8.2 -6.7,-13.4c-0.9,-0.3 -1.5,-1.2 -1.5,-2.1l0,-0.4c-0.8,-0.3 -1.4,-1.2 -1.4,-2.1l0,-5.8c0,-0.9 0.6,-1.7 1.4,-2.1l0,-0.9c0,-1.2 1,-2.3 2.3,-2.3c0.8,0 1.4,0.4 1.8,1c1.1,-3.1 2.9,-5.8 5.1,-8.1c3.9,-3.9 9.4,-6.3 15.4,-6.3c6,0 11.4,2.4 15.4,6.3c2.2,2.2 4,5 5.1,8c0.4,-0.3 0.9,-0.5 1.5,-0.5c1.2,0 2.3,1 2.3,2.2l0,0.2c1.2,0.1 2,1.1 2,2.2l0,5.8c0,1.2 -0.9,2.2 -2,2.3l0,0.8c0,1.2 -1,2.3 -2.3,2.3c-0.6,0 -1.1,-0.2 -1.5,-0.6c-1.1,3 -2.9,5.8 -5.1,8c-1.4,1.4 -3.1,2.6 -4.9,3.6l0,0zm-10.4,4.2c1.5,0 2.7,1.2 2.7,2.7s-1.2,2.7 -2.7,2.7c-1.2,0 -2.3,-0.8 -2.6,-2c-3.1,-0.3 -6.1,-1.1 -8.7,-2.4c-3.5,1.5 -6.6,3.6 -9.3,6.3c-5.3,5.3 -8.6,12.7 -8.6,20.8l0,4.1c0,0.8 0.3,1.6 0.9,2.1c0.5,0.5 1.3,0.9 2.1,0.9l52.9,0c0.8,0 1.6,-0.3 2.1,-0.9s0.9,-1.3 0.9,-2.1l0,-4.1c0,-8.1 -3.3,-15.4 -8.6,-20.8c-5.3,-5.3 -12.7,-8.6 -20.7,-8.6c-3.2,0 -6.2,0.5 -9.1,1.4c2,0.8 4.1,1.3 6.4,1.5c0.1,-0.9 1.1,-1.6 2.3,-1.6l0,0zm-14.1,-2.7c1.2,-0.5 2.4,-1 3.7,-1.4c-1.8,-1 -3.5,-2.2 -5,-3.7c-2.4,-2.4 -4.2,-5.3 -5.2,-8.5c-0.2,0.2 -0.4,0.4 -0.7,0.6c0.2,4.7 2.5,9 6.1,12.2c0.3,0.2 0.7,0.5 1.1,0.8l0,0zm26.2,-32.7c-3.1,-3.1 -7.4,-5 -12.2,-5c-4.8,0 -9,1.9 -12.2,5c-3.1,3.1 -5,7.4 -5,12.2c0,4.8 1.9,9 5,12.2c3.1,3.1 7.4,5 12.2,5c4.7,0 9,-1.9 12.2,-5c3.1,-3.1 5,-7.4 5,-12.2c0.1,-4.7 -1.9,-9 -5,-12.2l0,0z"/>
  </g>
 </g>
</svg>