<svg width="100" height="125.00000000000001" xmlns="http://www.w3.org/2000/svg">
 <title>08</title>

 <g>
  <title>background</title>
  <rect fill="none" id="canvas_background" height="602" width="802" y="-1" x="-1"/>
 </g>
 <g>
  <title>Layer 1</title>
  <g id="svg_1">
   <path id="svg_2" d="m95.84,64.1334a2,2 0 0 0 -0.42,-1.23l-5.8,-7.42l0,0l-6.44,-13.5a12.06,12.06 0 0 0 -10.83,-6.84l-11.73,0l0,-3.1a2,2 0 0 0 -2,-2l-42.76,0a2,2 0 1 0 0,4l40.76,0l0,22.38a2,2 0 0 0 2,2l28.25,0l5,6.39l0,17.07l-7.7,0a11.11,11.11 0 0 0 -21.88,0l-19.84,0a11.11,11.11 0 0 0 -21.88,0l-5.71,0a2,2 0 1 0 0,4l5.73,0a11.12,11.12 0 0 0 21.86,0l19.82,0a11.12,11.12 0 0 0 21.86,0l7.71,0a4,4 0 0 0 4,-4l0,-17.75zm-35.22,-25l11.76,0a8,8 0 0 1 7.22,4.56l5.13,10.76l-24.11,0l0,-15.32zm-29.11,51.83a7.13,7.13 0 1 1 7.12,-7.12a7.13,7.13 0 0 1 -7.12,7.12zm41.69,0a7.13,7.13 0 1 1 7.13,-7.12a7.13,7.13 0 0 1 -7.13,7.12z"/>
   <path id="svg_3" d="m24.16,68.4834a2,2 0 0 0 -2,-2l-11,0a2,2 0 0 0 0,4l11,0a2,2 0 0 0 2,-2z"/>
   <path id="svg_4" d="m6.16,58.4834l23,0a2,2 0 1 0 0,-4l-23,0a2,2 0 1 0 0,4z"/>
   <path id="svg_5" d="m9.16,44.4834a2,2 0 0 0 2,2l23,0a2,2 0 0 0 0,-4l-23,0a2,2 0 0 0 -2,2z"/>
  </g>
  <text id="svg_7" font-family="'Helvetica Neue', Helvetica, Arial-Unicode, Arial, Sans-serif" font-weight="bold" font-size="5px" fill="#000000" y="120" x="0"/>
 </g>
</svg>