<svg width="100" height="125" xmlns="http://www.w3.org/2000/svg">
 <style type="text/css">.st0{fill:none;stroke:#000000;stroke-width:2;stroke-linecap:round;stroke-linejoin:round;stroke-miterlimit:10;}
	.st1{fill:none;stroke:#000000;stroke-width:2.2;stroke-linecap:round;stroke-linejoin:round;stroke-miterlimit:10;}</style>

 <g>
  <title>background</title>
  <rect fill="none" id="canvas_background" height="602" width="802" y="-1" x="-1"/>
 </g>
 <g>
  <title>Layer 1</title>
  <g id="svg_20">
   <path id="svg_1" d="m41.368,41.876c0,4.766 3.877,8.643 8.642,8.643s8.642,-3.877 8.642,-8.643c0,-4.765 -3.876,-8.642 -8.642,-8.642s-8.642,3.877 -8.642,8.642zm8.642,-6.641c3.662,0 6.642,2.979 6.642,6.642c0,3.663 -2.979,6.643 -6.642,6.643c-3.663,0 -6.642,-2.979 -6.642,-6.643c0,-3.663 2.98,-6.642 6.642,-6.642z"/>
   <path id="svg_2" d="m51.01,28.33l0,-4.706c0,-0.553 -0.448,-1 -1,-1c-0.552,0 -1,0.447 -1,1l0,4.706c0,0.553 0.448,1 1,1c0.552,0 1,-0.447 1,-1z"/>
   <path id="svg_3" d="m41.841,25.525c-0.273,-0.48 -0.885,-0.648 -1.364,-0.374c-0.48,0.273 -0.647,0.885 -0.374,1.364l2.33,4.088c0.184,0.323 0.522,0.505 0.87,0.505c0.168,0 0.338,-0.042 0.494,-0.131c0.48,-0.273 0.647,-0.885 0.374,-1.364l-2.33,-4.088z"/>
   <path id="svg_4" d="m38.865,34.113l-4.049,-2.398c-0.477,-0.281 -1.089,-0.124 -1.37,0.351c-0.282,0.476 -0.125,1.089 0.351,1.37l4.049,2.398c0.16,0.095 0.335,0.14 0.509,0.14c0.342,0 0.675,-0.175 0.861,-0.49c0.281,-0.476 0.124,-1.089 -0.351,-1.371z"/>
   <path id="svg_5" d="m31.76,40.572c-0.544,0 -0.99,0.437 -1,0.983c-0.009,0.552 0.431,1.007 0.983,1.017l4.705,0.078c0.006,0 0.011,0 0.017,0c0.544,0 0.99,-0.437 1,-0.983c0.009,-0.552 -0.431,-1.007 -0.983,-1.017l-4.705,-0.078c-0.006,0 -0.011,0 -0.017,0z"/>
   <path id="svg_6" d="m37.65,47.51l-4.126,2.263c-0.484,0.266 -0.662,0.873 -0.396,1.357c0.182,0.332 0.524,0.52 0.878,0.52c0.163,0 0.327,-0.039 0.48,-0.123l4.126,-2.263c0.484,-0.266 0.662,-0.873 0.396,-1.357c-0.266,-0.486 -0.873,-0.665 -1.358,-0.397z"/>
   <path id="svg_7" d="m39.925,58.276c0.164,0.101 0.344,0.148 0.523,0.148c0.336,0 0.664,-0.169 0.853,-0.477l2.465,-4.009c0.289,-0.47 0.142,-1.086 -0.328,-1.375c-0.471,-0.29 -1.086,-0.144 -1.376,0.328l-2.465,4.009c-0.289,0.47 -0.142,1.087 0.328,1.376z"/>
   <path id="svg_8" d="m48.56,55.382l-0.157,4.703c-0.019,0.552 0.414,1.015 0.966,1.032c0.011,0.001 0.022,0.001 0.034,0.001c0.537,0 0.981,-0.426 0.999,-0.967l0.157,-4.703c0.019,-0.552 -0.414,-1.015 -0.966,-1.032c-0.531,-0.053 -1.015,0.413 -1.033,0.966z"/>
   <path id="svg_9" d="m55.856,52.977c-0.489,0.257 -0.676,0.862 -0.419,1.351l2.193,4.164c0.179,0.34 0.526,0.534 0.886,0.534c0.157,0 0.316,-0.037 0.465,-0.115c0.489,-0.257 0.676,-0.862 0.419,-1.351l-2.193,-4.164c-0.257,-0.488 -0.86,-0.676 -1.351,-0.419z"/>
   <path id="svg_10" d="m60.586,48.625c-0.297,0.466 -0.161,1.084 0.305,1.381l3.967,2.532c0.167,0.106 0.353,0.157 0.537,0.157c0.33,0 0.653,-0.163 0.844,-0.462c0.297,-0.466 0.161,-1.084 -0.305,-1.381l-3.967,-2.532c-0.465,-0.296 -1.083,-0.16 -1.381,0.305z"/>
   <path id="svg_11" d="m62.541,42.503c-0.028,0.552 0.397,1.021 0.949,1.049l4.7,0.235c0.017,0.001 0.034,0.001 0.051,0.001c0.529,0 0.971,-0.415 0.998,-0.95c0.028,-0.552 -0.397,-1.021 -0.949,-1.049l-4.7,-0.235c-0.53,-0.031 -1.022,0.396 -1.049,0.949z"/>
   <path id="svg_12" d="m65.848,32.749l-4.2,2.123c-0.493,0.249 -0.69,0.851 -0.441,1.344c0.176,0.349 0.528,0.549 0.894,0.549c0.151,0 0.306,-0.034 0.45,-0.107l4.2,-2.123c0.493,-0.249 0.69,-0.851 0.441,-1.344c-0.25,-0.494 -0.852,-0.694 -1.344,-0.442z"/>
   <path id="svg_13" d="m60.636,25.822c-0.461,-0.305 -1.082,-0.179 -1.386,0.282l-2.598,3.924c-0.305,0.46 -0.179,1.081 0.282,1.386c0.17,0.112 0.362,0.166 0.551,0.166c0.324,0 0.643,-0.157 0.835,-0.448l2.598,-3.924c0.305,-0.46 0.179,-1.081 -0.282,-1.386z"/>
   <path id="svg_14" d="m89.125,102.299c0.256,0 0.512,-0.098 0.707,-0.293c0.391,-0.391 0.391,-1.023 0,-1.414c-4.318,-4.318 -8.887,-8.094 -13.561,-11.402c4.26,-1.507 8.652,-2.836 13.094,-3.935c0.536,-0.133 0.863,-0.675 0.73,-1.211c-0.133,-0.536 -0.677,-0.863 -1.211,-0.73c-4.978,1.231 -9.902,2.738 -14.644,4.471c-2.52,-1.701 -5.064,-3.268 -7.611,-4.714c7.298,-2.751 14.918,-4.914 22.685,-6.419c0.542,-0.104 0.896,-0.63 0.792,-1.172c-0.105,-0.542 -0.63,-0.898 -1.172,-0.791c-8.441,1.635 -16.716,4.029 -24.596,7.112c-2.904,-1.566 -5.802,-2.979 -8.662,-4.25c13.373,-5.531 25.568,-8.015 33.585,-9.121c0.547,-0.075 0.929,-0.58 0.854,-1.127c-0.076,-0.548 -0.583,-0.936 -1.127,-0.854c-8.491,1.171 -21.596,3.858 -35.862,10.002c-3.333,-1.398 -6.599,-2.611 -9.746,-3.659c23.747,-11.073 45.563,-12.123 45.787,-12.133c0.552,-0.023 0.98,-0.489 0.957,-1.041c-0.023,-0.553 -0.494,-1 -1.041,-0.957c-0.234,0.01 -23.617,1.122 -48.48,13.236c-16.579,-5.151 -29.195,-5.781 -29.436,-5.791c-0.542,-0.036 -1.018,0.404 -1.041,0.957c-0.023,0.552 0.405,1.018 0.957,1.041c0.453,0.02 45.725,2.292 77.335,33.901c0.195,0.196 0.451,0.294 0.707,0.294z"/>
   <path id="svg_15" d="m74.242,102.3c0.291,0 0.579,-0.126 0.776,-0.369c0.348,-0.428 0.284,-1.058 -0.145,-1.406c-22.996,-18.711 -49.725,-24.716 -63.611,-26.63c-0.544,-0.083 -1.052,0.306 -1.127,0.854c-0.075,0.547 0.307,1.052 0.854,1.127c13.679,1.886 40.004,7.798 62.623,26.2c0.184,0.151 0.408,0.224 0.63,0.224z"/>
   <path id="svg_16" d="m57.445,102.299c0.329,0 0.65,-0.161 0.841,-0.458c0.299,-0.464 0.166,-1.083 -0.298,-1.383c-17.007,-10.965 -34.768,-16.016 -46.673,-18.323c-0.543,-0.108 -1.067,0.249 -1.172,0.791c-0.105,0.542 0.25,1.067 0.792,1.172c11.732,2.273 29.231,7.249 45.97,18.042c0.166,0.107 0.354,0.159 0.54,0.159z"/>
   <path id="svg_17" d="m11.365,90.76c-0.536,-0.13 -1.079,0.194 -1.211,0.73c-0.133,0.536 0.194,1.078 0.73,1.211c9.388,2.322 18.35,5.543 26.638,9.574c0.141,0.068 0.29,0.101 0.437,0.101c0.371,0 0.727,-0.207 0.9,-0.562c0.241,-0.497 0.035,-1.096 -0.462,-1.337c-8.414,-4.092 -17.509,-7.362 -27.032,-9.717z"/>
  </g>
 </g>
</svg>